<svg width="74" height="56" xmlns="http://www.w3.org/2000/svg">
  <path d="M5.44 56A36.577 36.577 0 0 1 0 36.749C0 16.453 16.453 0 36.749 0c20.296 0 36.749 16.453 36.749 36.749 0 6.563-1.72 12.724-4.735 18.057a31.554 31.554 0 0 0-1.965-8.819 30.951 30.951 0 0 0 1.284-8.851c0-17.092-13.855-30.947-30.946-30.947-17.092 0-30.947 13.855-30.947 30.947 0 3.076.45 6.047 1.285 8.851A31.595 31.595 0 0 0 5.44 56zm6.94-18.583a25.268 25.268 0 0 1-.001-.281c0-13.673 11.084-24.757 24.757-24.757 13.673 0 24.757 11.084 24.757 24.757 0 .094 0 .187-.002.28-5.813-7.246-14.742-11.885-24.755-11.885-10.013 0-18.942 4.64-24.756 11.886z" fill="#000" fill-rule="evenodd"/>
</svg>
