<?xml version="1.0" encoding="utf-8"?>
<!-- Generated by IcoMoon.io -->
<svg version="1.1" xmlns="http://www.w3.org/2000/svg" xmlns:xlink="http://www.w3.org/1999/xlink" width="752" height="32" viewBox="0 0 752 32">
<svg id="horizon-black" width="42" height="32" viewBox="0 0 42 32" x="0" y="0">
<path fill="#000" d="M3.109 32c-1.951-3.119-3.109-6.908-3.109-10.967 0-0.012 0-0.023 0-0.035v0.002c0-11.598 9.402-20.999 20.999-20.999s20.999 9.402 20.999 20.999c0 3.75-0.983 7.271-2.706 10.318-0.143-1.848-0.543-3.561-1.165-5.162l0.042 0.123c0.466-1.509 0.734-3.244 0.734-5.041 0-0.006 0-0.012 0-0.017v0.001c0-9.767-7.917-17.684-17.683-17.684s-17.684 7.917-17.684 17.684c0 1.758 0.257 3.455 0.734 5.058-0.662 1.69-1.081 3.645-1.161 5.687l-0.001 0.034zM7.074 21.381c-0-0.039-0.001-0.085-0.001-0.132 0-0.010 0-0.020 0-0.030v0.002c0-7.813 6.334-14.147 14.147-14.147s14.147 6.334 14.147 14.147c0 0.054 0 0.107-0.001 0.16-3.322-4.141-8.424-6.791-14.146-6.791s-10.824 2.651-14.146 6.792z"></path>
</svg>
<svg id="horizon-white" width="42" height="32" viewBox="0 0 42 32" x="96" y="0">
<path fill="#fff" d="M3.109 32c-1.951-3.119-3.109-6.908-3.109-10.967 0-0.012 0-0.023 0-0.035v0.002c0-11.598 9.402-20.999 20.999-20.999s20.999 9.402 20.999 20.999c0 3.75-0.983 7.271-2.706 10.318-0.143-1.848-0.543-3.561-1.165-5.162l0.042 0.123c0.466-1.509 0.734-3.244 0.734-5.041 0-0.006 0-0.012 0-0.017v0.001c0-9.767-7.917-17.684-17.683-17.684s-17.684 7.917-17.684 17.684c0 1.758 0.257 3.455 0.734 5.058-0.662 1.69-1.081 3.645-1.161 5.687l-0.001 0.034zM7.074 21.381c-0-0.039-0.001-0.085-0.001-0.132 0-0.010 0-0.020 0-0.030v0.002c0-7.813 6.334-14.147 14.147-14.147s14.147 6.334 14.147 14.147c0 0.054 0 0.107-0.001 0.16-3.322-4.141-8.424-6.791-14.146-6.791s-10.824 2.651-14.146 6.792z"></path>
</svg>
</svg>
